<?xml version="1.0" encoding="utf-8"?>
<!-- Generator: Adobe Illustrator 16.0.0, SVG Export Plug-In . SVG Version: 6.00 Build 0)  -->
<!DOCTYPE svg PUBLIC "-//W3C//DTD SVG 1.1//EN" "http://www.w3.org/Graphics/SVG/1.1/DTD/svg11.dtd">
<svg version="1.1" id="Layer_1" xmlns="http://www.w3.org/2000/svg" xmlns:xlink="http://www.w3.org/1999/xlink" x="0px" y="0px"
	 width="841.89px" height="595.28px" viewBox="0 0 841.89 595.28" enable-background="new 0 0 841.89 595.28" xml:space="preserve">
<g>
	<path fill="none" stroke="#FFFFFF" stroke-width="20" stroke-miterlimit="10" d="M221.348,346.554
		c-0.829,0.425-1.725,0.276-2.595,0.276c-14.556,0.009-29.112,0.007-43.668,0.006c-0.32,0-0.641,0.011-0.959-0.004
		c-1.705-0.075-1.841-0.125-1.812-1.757c0.12-6.781-0.051-13.562,0.838-20.329c0.477-3.626,0.655-7.301,1.083-10.947
		c0.447-3.81,1.122-7.577,1.723-11.358c1.34-8.431,3.393-16.712,5.72-24.906c1.801-6.344,4.003-12.584,6.274-18.78
		c1.882-5.136,3.993-10.2,6.245-15.186c2.095-4.64,4.39-9.2,6.815-13.677c3.103-5.729,6.338-11.391,9.968-16.81
		c2.256-3.369,4.541-6.719,6.891-10.027c2.069-2.913,4.307-5.7,6.341-8.638c1.127-1.628,2.476-3.106,3.754-4.627
		c2.356-2.805,4.652-5.667,7.123-8.367c2.641-2.887,5.442-5.628,8.199-8.408c2.026-2.043,4.094-4.045,6.145-6.065
		c4.378-4.312,9.087-8.243,13.912-12.039c3.055-2.404,6.05-4.89,9.186-7.183c6.794-4.967,13.884-9.49,21.122-13.784
		c6.702-3.975,13.602-7.583,20.679-10.825c4.846-2.22,9.796-4.217,14.773-6.149c6.387-2.479,12.876-4.63,19.421-6.609
		c7.18-2.171,14.485-3.923,21.859-5.263c9.182-1.668,18.442-2.826,27.751-3.626c4.634-0.398,9.265-0.286,13.894-0.499
		c6.155-0.283,12.317-0.088,18.448,0.238c6.846,0.364,13.689,1.059,20.48,2.108c6.622,1.023,13.252,2.034,19.771,3.59
		c4.806,1.147,9.63,2.256,14.335,3.787c5.293,1.723,10.625,3.349,15.831,5.309c7.597,2.861,15.06,6.036,22.381,9.59
		c8.738,4.243,17.06,9.186,25.295,14.272c3.212,1.984,6.284,4.27,9.386,6.465c3.103,2.197,5.927,4.759,9.172,6.768
		c1.408,0.872,2.583,2.118,3.881,3.174c8.931,7.277,17.103,15.368,25.036,23.69c3.563,3.738,6.881,7.728,10.042,11.831
		c2.378,3.087,4.87,6.09,7.172,9.233c4.932,6.731,9.423,13.746,13.653,20.949c3.673,6.252,7.107,12.611,10.166,19.174
		c4.472,9.594,8.294,19.432,11.593,29.504c2.686,8.203,4.812,16.532,6.563,24.949c1.312,6.307,2.309,12.688,3.103,19.104
		c1.198,9.685,1.84,19.383,1.869,29.131c0.01,3.074,0.29,3.001-2.987,3.001c-14.476-0.003-28.952,0.001-43.429-0.008
		c-0.87,0-1.766,0.148-2.595-0.276c-0.952-0.9-0.686-2.089-0.662-3.168c0.228-10.508-0.783-20.947-2.568-31.254
		c-2.818-16.276-7.521-32.021-14.389-47.115c-6.796-14.936-15.173-28.886-25.46-41.631c-14.644-18.143-31.867-33.407-51.977-45.318
		c-14.652-8.679-30.072-15.555-46.512-20.155c-11.429-3.198-23.034-5.475-34.816-6.571c-10.819-1.006-21.694-0.879-32.569-0.282
		c-7.133,0.392-14.176,1.347-21.162,2.619c-20.204,3.677-39.345,10.41-57.42,20.244c-11.5,6.256-22.276,13.529-32.285,21.924
		c-14.297,11.991-26.613,25.755-37.002,41.298c-10.53,15.752-18.468,32.685-24.067,50.739c-3.633,11.712-6.007,23.695-7.332,35.887
		c-0.708,6.521-1.05,13.057-0.96,19.617C222.025,344.466,222.301,345.654,221.348,346.554z"/>
	<linearGradient id="SVGID_1_" gradientUnits="userSpaceOnUse" x1="172.3096" y1="223.8447" x2="660.2129" y2="223.8447">
		<stop  offset="0" style="stop-color:#7658F8"/>
		<stop  offset="1" style="stop-color:#9733EE"/>
	</linearGradient>
	<path fill="url(#SVGID_1_)" d="M221.348,346.554c-0.829,0.425-1.725,0.276-2.595,0.276c-14.556,0.009-29.112,0.007-43.668,0.006
		c-0.32,0-0.641,0.011-0.959-0.004c-1.705-0.075-1.841-0.125-1.812-1.757c0.12-6.781-0.051-13.562,0.838-20.329
		c0.477-3.626,0.655-7.301,1.083-10.947c0.447-3.81,1.122-7.577,1.723-11.358c1.34-8.431,3.393-16.712,5.72-24.906
		c1.801-6.344,4.003-12.584,6.274-18.78c1.882-5.136,3.993-10.2,6.245-15.186c2.095-4.64,4.39-9.2,6.815-13.677
		c3.103-5.729,6.338-11.391,9.968-16.81c2.256-3.369,4.541-6.719,6.891-10.027c2.069-2.913,4.307-5.7,6.341-8.638
		c1.127-1.628,2.476-3.106,3.754-4.627c2.356-2.805,4.652-5.667,7.123-8.367c2.641-2.887,5.442-5.628,8.199-8.408
		c2.026-2.043,4.094-4.045,6.145-6.065c4.378-4.312,9.087-8.243,13.912-12.039c3.055-2.404,6.05-4.89,9.186-7.183
		c6.794-4.967,13.884-9.49,21.122-13.784c6.702-3.975,13.602-7.583,20.679-10.825c4.846-2.22,9.796-4.217,14.773-6.149
		c6.387-2.479,12.876-4.63,19.421-6.609c7.18-2.171,14.485-3.923,21.859-5.263c9.182-1.668,18.442-2.826,27.751-3.626
		c4.634-0.398,9.265-0.286,13.894-0.499c6.155-0.283,12.317-0.088,18.448,0.238c6.846,0.364,13.689,1.059,20.48,2.108
		c6.622,1.023,13.252,2.034,19.771,3.59c4.806,1.147,9.63,2.256,14.335,3.787c5.293,1.723,10.625,3.349,15.831,5.309
		c7.597,2.861,15.06,6.036,22.381,9.59c8.738,4.243,17.06,9.186,25.295,14.272c3.212,1.984,6.284,4.27,9.386,6.465
		c3.103,2.197,5.927,4.759,9.172,6.768c1.408,0.872,2.583,2.118,3.881,3.174c8.931,7.277,17.103,15.368,25.036,23.69
		c3.563,3.738,6.881,7.728,10.042,11.831c2.378,3.087,4.87,6.09,7.172,9.233c4.932,6.731,9.423,13.746,13.653,20.949
		c3.673,6.252,7.107,12.611,10.166,19.174c4.472,9.594,8.294,19.432,11.593,29.504c2.686,8.203,4.812,16.532,6.563,24.949
		c1.312,6.307,2.309,12.688,3.103,19.104c1.198,9.685,1.84,19.383,1.869,29.131c0.01,3.074,0.29,3.001-2.987,3.001
		c-14.476-0.003-28.952,0.001-43.429-0.008c-0.87,0-1.766,0.148-2.595-0.276c-0.952-0.9-0.686-2.089-0.662-3.168
		c0.228-10.508-0.783-20.947-2.568-31.254c-2.818-16.276-7.521-32.021-14.389-47.115c-6.796-14.936-15.173-28.886-25.46-41.631
		c-14.644-18.143-31.867-33.407-51.977-45.318c-14.652-8.679-30.072-15.555-46.512-20.155c-11.429-3.198-23.034-5.475-34.816-6.571
		c-10.819-1.006-21.694-0.879-32.569-0.282c-7.133,0.392-14.176,1.347-21.162,2.619c-20.204,3.677-39.345,10.41-57.42,20.244
		c-11.5,6.256-22.276,13.529-32.285,21.924c-14.297,11.991-26.613,25.755-37.002,41.298c-10.53,15.752-18.468,32.685-24.067,50.739
		c-3.633,11.712-6.007,23.695-7.332,35.887c-0.708,6.521-1.05,13.057-0.96,19.617C222.025,344.466,222.301,345.654,221.348,346.554z
		"/>
</g>
<g>
	<path fill="none" stroke="#FFFFFF" stroke-width="20" stroke-miterlimit="10" d="M221.348,346.554
		c-1.534-107.924,86.731-196.879,195.258-196.682c107.917,0.196,195.937,88.581,194.587,196.683
		c-0.675,0.336-1.403,0.241-2.114,0.242c-17.129,0.005-34.259,0.004-51.388,0c-0.557,0-1.113-0.056-1.669-0.086
		c-0.992-0.88-0.736-2.079-0.687-3.149c0.236-5.047-0.001-10.116-0.633-15.076c-1.179-9.26-2.749-18.485-5.676-27.409
		c-4.768-14.537-11.327-28.172-20.415-40.524c-7.478-10.163-16.165-19.172-25.96-27.138c-13.055-10.618-27.648-18.37-43.544-23.77
		c-8.278-2.812-16.783-4.475-25.42-5.813c-8.597-1.333-17.206-1.596-25.799-1.192c-15.733,0.74-31.007,3.876-45.664,9.892
		c-14.326,5.88-27.477,13.65-39.196,23.757c-6.669,5.75-12.802,12.056-18.313,18.953c-10.85,13.579-19.018,28.564-24.187,45.195
		c-2.426,7.805-4.202,15.704-5.38,23.8c-0.948,6.516-1.265,13.016-1.293,19.563c-0.004,1.005,0.243,2.112-0.696,2.911
		c-0.556,0.03-1.112,0.086-1.668,0.086c-16.01,0.005-32.02,0.005-48.029,0C222.751,346.796,222.022,346.891,221.348,346.554z"/>
	<linearGradient id="SVGID_2_" gradientUnits="userSpaceOnUse" x1="221.3281" y1="248.3398" x2="611.208" y2="248.3398">
		<stop  offset="0" style="stop-color:#EB3349"/>
		<stop  offset="1" style="stop-color:#E12967"/>
	</linearGradient>
	<path fill="url(#SVGID_2_)" d="M221.348,346.554c-1.534-107.924,86.731-196.879,195.258-196.682
		c107.917,0.196,195.937,88.581,194.587,196.683c-0.675,0.336-1.403,0.241-2.114,0.242c-17.129,0.005-34.259,0.004-51.388,0
		c-0.557,0-1.113-0.056-1.669-0.086c-0.992-0.88-0.736-2.079-0.687-3.149c0.236-5.047-0.001-10.116-0.633-15.076
		c-1.179-9.26-2.749-18.485-5.676-27.409c-4.768-14.537-11.327-28.172-20.415-40.524c-7.478-10.163-16.165-19.172-25.96-27.138
		c-13.055-10.618-27.648-18.37-43.544-23.77c-8.278-2.812-16.783-4.475-25.42-5.813c-8.597-1.333-17.206-1.596-25.799-1.192
		c-15.733,0.74-31.007,3.876-45.664,9.892c-14.326,5.88-27.477,13.65-39.196,23.757c-6.669,5.75-12.802,12.056-18.313,18.953
		c-10.85,13.579-19.018,28.564-24.187,45.195c-2.426,7.805-4.202,15.704-5.38,23.8c-0.948,6.516-1.265,13.016-1.293,19.563
		c-0.004,1.005,0.243,2.112-0.696,2.911c-0.556,0.03-1.112,0.086-1.668,0.086c-16.01,0.005-32.02,0.005-48.029,0
		C222.751,346.796,222.022,346.891,221.348,346.554z"/>
</g>
<g>
	<path fill="none" stroke="#FFFFFF" stroke-width="20" stroke-miterlimit="10" d="M273.159,346.711
		c0.023-1.357,0.124-2.72,0.057-4.073c-0.246-4.969,0.153-9.933,0.706-14.832c0.505-4.48,1.125-8.99,2.155-13.414
		c0.899-3.864,1.811-7.722,2.956-11.523c2.841-9.437,6.536-18.52,11.248-27.179c3.994-7.34,8.62-14.278,13.832-20.799
		c4.883-6.108,10.284-11.752,16.096-16.993c10.345-9.329,21.892-16.874,34.446-22.843c8.248-3.922,16.847-7.016,25.729-9.139
		c5.09-1.217,10.289-2.015,15.484-2.81c8.11-1.24,16.225-1.173,24.362-1.202c3.362-0.011,6.746,0.226,10.033,0.684
		c9.043,1.258,18.047,2.818,26.784,5.644c9.616,3.109,18.842,7.096,27.621,12.073c7.974,4.521,15.451,9.802,22.359,15.831
		c6.79,5.924,12.971,12.438,18.601,19.502c6.071,7.619,11.189,15.815,15.58,24.476c2.366,4.668,4.389,9.498,6.216,14.416
		c1.713,4.612,3.097,9.318,4.406,14.048c0.635,2.291,0.845,4.699,1.477,6.991c1.043,3.781,1.123,7.704,1.903,11.531
		c0.648,3.178,0.583,6.513,0.703,9.783c0.12,3.273,0.079,6.554,0.108,9.83c-0.507,0.74-1.286,0.522-1.975,0.522
		c-14.72,0.012-29.438,0.013-44.157,0.003c-1.86-0.001-1.944-0.037-1.894-1.816c0.118-4.088-0.056-8.176-0.661-12.196
		c-0.543-3.609-1.074-7.248-2.088-10.777c-1.357-4.732-2.787-9.437-4.807-13.944c-3.436-7.671-7.747-14.786-13.11-21.275
		c-4.958-6-10.534-11.317-16.81-15.923c-6.84-5.021-14.248-9.017-22.179-11.951c-5.351-1.98-10.883-3.358-16.557-4.32
		c-6.034-1.023-12.057-1.249-18.13-1.235c-4.811,0.011-9.538,0.75-14.256,1.557c-7.968,1.362-15.523,4.02-22.772,7.533
		c-6.613,3.204-12.687,7.252-18.407,11.887c-6.566,5.321-12.043,11.615-16.958,18.413c-2.941,4.067-5.401,8.464-7.489,13.034
		c-2.277,4.985-4.217,10.102-5.593,15.423c-1.983,7.67-3.183,15.433-3.065,23.376c0.032,2.2-0.015,2.218-2.225,2.219
		c-15.839,0.005-31.678,0.006-47.517-0.01C274.616,347.23,273.746,347.519,273.159,346.711z"/>
	<linearGradient id="SVGID_3_" gradientUnits="userSpaceOnUse" x1="273.1421" y1="274.5918" x2="556.0215" y2="274.5918">
		<stop  offset="0" style="stop-color:#0CEBEB"/>
		<stop  offset="0.5" style="stop-color:#20E3B2"/>
		<stop  offset="1" style="stop-color:#29FFC6"/>
	</linearGradient>
	<path fill="url(#SVGID_3_)" d="M273.159,346.711c0.023-1.357,0.124-2.72,0.057-4.073c-0.246-4.969,0.153-9.933,0.706-14.832
		c0.505-4.48,1.125-8.99,2.155-13.414c0.899-3.864,1.811-7.722,2.956-11.523c2.841-9.437,6.536-18.52,11.248-27.179
		c3.994-7.34,8.62-14.278,13.832-20.799c4.883-6.108,10.284-11.752,16.096-16.993c10.345-9.329,21.892-16.874,34.446-22.843
		c8.248-3.922,16.847-7.016,25.729-9.139c5.09-1.217,10.289-2.015,15.484-2.81c8.11-1.24,16.225-1.173,24.362-1.202
		c3.362-0.011,6.746,0.226,10.033,0.684c9.043,1.258,18.047,2.818,26.784,5.644c9.616,3.109,18.842,7.096,27.621,12.073
		c7.974,4.521,15.451,9.802,22.359,15.831c6.79,5.924,12.971,12.438,18.601,19.502c6.071,7.619,11.189,15.815,15.58,24.476
		c2.366,4.668,4.389,9.498,6.216,14.416c1.713,4.612,3.097,9.318,4.406,14.048c0.635,2.291,0.845,4.699,1.477,6.991
		c1.043,3.781,1.123,7.704,1.903,11.531c0.648,3.178,0.583,6.513,0.703,9.783c0.12,3.273,0.079,6.554,0.108,9.83
		c-0.507,0.74-1.286,0.522-1.975,0.522c-14.72,0.012-29.438,0.013-44.157,0.003c-1.86-0.001-1.944-0.037-1.894-1.816
		c0.118-4.088-0.056-8.176-0.661-12.196c-0.543-3.609-1.074-7.248-2.088-10.777c-1.357-4.732-2.787-9.437-4.807-13.944
		c-3.436-7.671-7.747-14.786-13.11-21.275c-4.958-6-10.534-11.317-16.81-15.923c-6.84-5.021-14.248-9.017-22.179-11.951
		c-5.351-1.98-10.883-3.358-16.557-4.32c-6.034-1.023-12.057-1.249-18.13-1.235c-4.811,0.011-9.538,0.75-14.256,1.557
		c-7.968,1.362-15.523,4.02-22.772,7.533c-6.613,3.204-12.687,7.252-18.407,11.887c-6.566,5.321-12.043,11.615-16.958,18.413
		c-2.941,4.067-5.401,8.464-7.489,13.034c-2.277,4.985-4.217,10.102-5.593,15.423c-1.983,7.67-3.183,15.433-3.065,23.376
		c0.032,2.2-0.015,2.218-2.225,2.219c-15.839,0.005-31.678,0.006-47.517-0.01C274.616,347.23,273.746,347.519,273.159,346.711z"/>
</g>
<path fill-rule="evenodd" clip-rule="evenodd" fill="#EE738E" d="M451.314,480.32c0.925-0.965,1.955-1.679,3.392-1.422
	C453.647,479.545,452.634,480.296,451.314,480.32z"/>
<path fill-rule="evenodd" clip-rule="evenodd" fill="#EE738E" d="M449.389,481.132c0.26-1.179,1.209-0.725,1.929-0.814
	C450.876,481.065,450.039,480.878,449.389,481.132z"/>
<path fill-rule="evenodd" clip-rule="evenodd" fill="#EE738E" d="M454.686,478.916c0.316-0.614,0.928-0.763,1.51-0.958
	C456.095,478.911,455.398,478.927,454.686,478.916z"/>
<g>
	<g>
		<linearGradient id="SVGID_4_" gradientUnits="userSpaceOnUse" x1="51.6108" y1="421.1084" x2="783.0898" y2="421.1084">
			<stop  offset="0" style="stop-color:#7658F8"/>
			<stop  offset="0.2" style="stop-color:#9733EE"/>
			<stop  offset="0.4" style="stop-color:#EB3349"/>
			<stop  offset="0.6" style="stop-color:#E12967"/>
			<stop  offset="0.8" style="stop-color:#0CEBEB"/>
			<stop  offset="0.9" style="stop-color:#20E3B2"/>
			<stop  offset="1" style="stop-color:#29FFC6"/>
		</linearGradient>
		<path fill="url(#SVGID_4_)" d="M80.341,469.521v-80.446h-28.73v-16.379h76.945v16.379H99.892v80.446H80.341z"/>
		<linearGradient id="SVGID_5_" gradientUnits="userSpaceOnUse" x1="51.6108" y1="421.1084" x2="783.0898" y2="421.1084">
			<stop  offset="0" style="stop-color:#7658F8"/>
			<stop  offset="0.2" style="stop-color:#9733EE"/>
			<stop  offset="0.4" style="stop-color:#EB3349"/>
			<stop  offset="0.6" style="stop-color:#E12967"/>
			<stop  offset="0.8" style="stop-color:#0CEBEB"/>
			<stop  offset="0.9" style="stop-color:#20E3B2"/>
			<stop  offset="1" style="stop-color:#29FFC6"/>
		</linearGradient>
		<path fill="url(#SVGID_5_)" d="M165.73,469.521l-23.117-96.825h20.012l14.597,66.51l17.701-66.51h23.249l16.975,67.632
			l14.86-67.632h19.682l-23.513,96.825h-20.739l-19.286-72.388l-19.22,72.388H165.73z"/>
		<linearGradient id="SVGID_6_" gradientUnits="userSpaceOnUse" x1="51.6108" y1="421.1084" x2="783.0898" y2="421.1084">
			<stop  offset="0" style="stop-color:#7658F8"/>
			<stop  offset="0.2" style="stop-color:#9733EE"/>
			<stop  offset="0.4" style="stop-color:#EB3349"/>
			<stop  offset="0.6" style="stop-color:#E12967"/>
			<stop  offset="0.8" style="stop-color:#0CEBEB"/>
			<stop  offset="0.9" style="stop-color:#20E3B2"/>
			<stop  offset="1" style="stop-color:#29FFC6"/>
		</linearGradient>
		<path fill="url(#SVGID_6_)" d="M377.798,469.521h-21.267l-8.454-21.994h-38.704l-7.992,21.994h-20.739l37.713-96.825h20.673
			L377.798,469.521z M341.803,431.213l-13.342-35.93l-13.077,35.93H341.803z"/>
		<linearGradient id="SVGID_7_" gradientUnits="userSpaceOnUse" x1="51.6108" y1="421.1084" x2="783.0898" y2="421.1084">
			<stop  offset="0" style="stop-color:#7658F8"/>
			<stop  offset="0.2" style="stop-color:#9733EE"/>
			<stop  offset="0.4" style="stop-color:#EB3349"/>
			<stop  offset="0.6" style="stop-color:#E12967"/>
			<stop  offset="0.8" style="stop-color:#0CEBEB"/>
			<stop  offset="0.9" style="stop-color:#20E3B2"/>
			<stop  offset="1" style="stop-color:#29FFC6"/>
		</linearGradient>
		<path fill="url(#SVGID_7_)" d="M398.923,372.695h35.732c8.057,0,14.199,0.616,18.426,1.849c5.682,1.674,10.545,4.646,14.598,8.917
			c4.051,4.271,7.133,9.5,9.246,15.686c2.113,6.188,3.17,13.815,3.17,22.886c0,7.97-0.99,14.839-2.971,20.607
			c-2.424,7.045-5.879,12.747-10.371,17.105c-3.391,3.303-7.969,5.879-13.736,7.728c-4.316,1.365-10.084,2.048-17.305,2.048h-36.789
			V372.695z M418.473,389.074v64.133h14.596c5.459,0,9.4-0.308,11.822-0.925c3.17-0.793,5.801-2.136,7.893-4.029
			c2.092-1.893,3.799-5.008,5.119-9.346c1.32-4.336,1.982-10.247,1.982-17.733c0-7.485-0.662-13.231-1.982-17.238
			s-3.17-7.134-5.549-9.379c-2.377-2.246-5.393-3.765-9.047-4.558c-2.73-0.616-8.082-0.925-16.051-0.925H418.473z"/>
		<linearGradient id="SVGID_8_" gradientUnits="userSpaceOnUse" x1="51.6108" y1="421.1084" x2="783.0898" y2="421.1084">
			<stop  offset="0" style="stop-color:#7658F8"/>
			<stop  offset="0.2" style="stop-color:#9733EE"/>
			<stop  offset="0.4" style="stop-color:#EB3349"/>
			<stop  offset="0.6" style="stop-color:#E12967"/>
			<stop  offset="0.8" style="stop-color:#0CEBEB"/>
			<stop  offset="0.9" style="stop-color:#20E3B2"/>
			<stop  offset="1" style="stop-color:#29FFC6"/>
		</linearGradient>
		<path fill="url(#SVGID_8_)" d="M507.429,372.695h35.731c8.058,0,14.2,0.616,18.427,1.849c5.681,1.674,10.545,4.646,14.597,8.917
			c4.051,4.271,7.134,9.5,9.247,15.686c2.113,6.188,3.17,13.815,3.17,22.886c0,7.97-0.99,14.839-2.972,20.607
			c-2.423,7.045-5.879,12.747-10.37,17.105c-3.391,3.303-7.97,5.879-13.737,7.728c-4.316,1.365-10.084,2.048-17.305,2.048h-36.788
			V372.695z M526.979,389.074v64.133h14.597c5.459,0,9.4-0.308,11.822-0.925c3.17-0.793,5.801-2.136,7.893-4.029
			c2.091-1.893,3.798-5.008,5.119-9.346c1.32-4.336,1.981-10.247,1.981-17.733c0-7.485-0.661-13.231-1.981-17.238
			c-1.321-4.007-3.171-7.134-5.549-9.379c-2.377-2.246-5.394-3.765-9.048-4.558c-2.73-0.616-8.081-0.925-16.05-0.925H526.979z"/>
		<linearGradient id="SVGID_9_" gradientUnits="userSpaceOnUse" x1="51.6108" y1="421.1084" x2="783.0898" y2="421.1084">
			<stop  offset="0" style="stop-color:#7658F8"/>
			<stop  offset="0.2" style="stop-color:#9733EE"/>
			<stop  offset="0.4" style="stop-color:#EB3349"/>
			<stop  offset="0.6" style="stop-color:#E12967"/>
			<stop  offset="0.8" style="stop-color:#0CEBEB"/>
			<stop  offset="0.9" style="stop-color:#20E3B2"/>
			<stop  offset="1" style="stop-color:#29FFC6"/>
		</linearGradient>
		<path fill="url(#SVGID_9_)" d="M616.528,469.521v-96.033h19.551v79.72h48.61v16.313H616.528z"/>
		<linearGradient id="SVGID_10_" gradientUnits="userSpaceOnUse" x1="51.6108" y1="421.1084" x2="783.0898" y2="421.1084">
			<stop  offset="0" style="stop-color:#7658F8"/>
			<stop  offset="0.2" style="stop-color:#9733EE"/>
			<stop  offset="0.4" style="stop-color:#EB3349"/>
			<stop  offset="0.6" style="stop-color:#E12967"/>
			<stop  offset="0.8" style="stop-color:#0CEBEB"/>
			<stop  offset="0.9" style="stop-color:#20E3B2"/>
			<stop  offset="1" style="stop-color:#29FFC6"/>
		</linearGradient>
		<path fill="url(#SVGID_10_)" d="M709.446,469.521v-96.825h71.794v16.379h-52.243v21.466h48.61v16.313h-48.61v26.354h54.093v16.313
			H709.446z"/>
	</g>
</g>
</svg>
